<svg xmlns="http://www.w3.org/2000/svg" xmlns:xlink="http://www.w3.org/1999/xlink" width="13" height="16" viewBox="0 0 89.62 107.14"><defs><clipPath id="a" transform="translate(-3.87 -4.7)"><rect width="85.45" height="83.66" fill="none"/></clipPath></defs><title>cat_look</title><g clip-path="url(#a)"><path d="M73.88,80.54a3.5,3.5,0,0,0-.1,2.82C74,82.54,73.68,81.37,73.88,80.54Z" transform="translate(-3.87 -4.7)" fill="#201600" fill-rule="evenodd"/><path d="M73.93,80.61c.29,2,1.56,5.69.1,6.82S67.92,88.65,66,89.06q-8,1.69-16,3.63C42.31,94.54,34.43,95.47,26.72,97c-3.58.69-7.06,1.84-10.67,2.34-.89.12-4.34.83-4.76-.15-.3-.7,1.91-3.1,2.28-3.73a32.07,32.07,0,0,0,3.26-6.57c.36-1.23,0-2.64.23-4s.72-2.71.9-4c.38-2.71-.06-5.58,1-8.38,7.61,11.74,27.72,13.23,42.1,5.9.39-.24,1.41-.11,1.37-.59,4.51-1.1,7.65-5,10.06-7.32.44,2.74,1.13,5,1.32,7.3A3.49,3.49,0,0,0,73.93,80.61Z" transform="translate(-3.87 -4.7)" fill="#f36f21" fill-rule="evenodd"/><path d="M73.63,64.61a3.46,3.46,0,0,1,.68.59c.87.95,1.61,4.78,1.23,6a1,1,0,0,1,0,.67c.69,4.56,1.41,9.58,2.29,14.63l-2.9.79c-.32-2.21-.64-4.43-1-6.67.15-.83-.25-2-.11-2.82-.19-2.29-.88-4.56-1.32-7.3-2.41,2.27-5.55,6.21-10.06,7.32,0,.49-1,.36-1.37.59-14.38,7.33-34.49,5.83-42.1-5.9-1.08,2.79-.64,5.67-1,8.38-.17,1.26-.71,2.6-.9,4s.13,2.77-.23,4a32.05,32.05,0,0,1-3.25,6.57c-.75,1.29-3,5.78-5.23,3.29-1.2-1.36,2.16-4.62,3-6a63.71,63.71,0,0,1,3.79-11.1c-.58-3,.26-6.4-.08-9.17-.19-1.56-.85-1.54-.1-3.19s2-2.47,3.21-.72c2.69,3.8,8,7.36,11.92,9.25,5.33,2.57,13.62,2.63,20.94,1.34,5.08-.89,12.35-4.72,17.05-9C68.83,68.8,70.91,62.87,73.63,64.61Z" transform="translate(-3.87 -4.7)" fill="#201600" fill-rule="evenodd"/></g><path d="M63.87,18.91c0,.3-.37.31-.51.51.33.64.17,1.57.58,2,0,.16-.22.17-.18.36.16.51.33,1.09.49,1.75-.33.57,0,1.32-.59,1.71,0,.62.3,1.64-.19,2.23.16.7-.29,1.31-.33,2a2.48,2.48,0,0,0-.58.35,2,2,0,0,0,0,.57c-.49.4-.68,1-1.25,1.39a1,1,0,0,1-.63.87,3.51,3.51,0,0,1-2.24,1.62c-.16.1-.2.29-.35.38-.83.12-1.51.54-2.41.23-.43.35-.95-.13-1.43-.12a1.37,1.37,0,0,0-.59-.67c-.79-1.24.39-2.42.12-3.8a4.21,4.21,0,0,0,0-2.27c0-.28.07-.74-.32-.81.06.63-.54,1.28-.41,2.26-.59.22-.51,1-.85,1.4,0,.18.12.19.1.39a15.1,15.1,0,0,1-.95,1.58c0,.18.11.16.14.27a10.89,10.89,0,0,0-1.44,2.21c-.18,0-.15.11-.33.09a5.86,5.86,0,0,1-2.31,2c-.11,0-.12-.15-.29-.08-.56.73-1.75.66-2.57,1.21-.06-.22-.38-.12-.63-.1s-.09.27-.25.31a9.86,9.86,0,0,1-2.85-.23c-.5.57-1.42.1-2-.22a1.22,1.22,0,0,1-.11-.5c-.11-.12-.33-.1-.42-.23-.27-.65-.12-1.18-.68-1.51-.31-.62,0-.94-.12-1.51a11.16,11.16,0,0,0-1.69,1c-.66-.07-1.21.55-1.9.68-.45.08-.82.38-1.25.49s-1.11-.08-1.61.24c-.49-.22-1.09.07-1.6-.09.08.21-.29.08-.32.21-.87-.37-2.21,0-3.07-.6a3.23,3.23,0,0,1-.92-.12A1.34,1.34,0,0,1,24,36.2a.51.51,0,0,1-.78-.42c-.43-.29-1-.41-1.13-.94-.06-.18.08-.34.05-.52a1.78,1.78,0,0,0-.56-.89c.26-.61.18-1.2.46-1.81a13.9,13.9,0,0,1,1.75-.49c.6-.71,1.68-1,2.16-1.84a2.65,2.65,0,0,0,1-.85c.64-.23.53-1,.84-1.51a5,5,0,0,1,1.81-1.4c0-.16-.09-.14-.09-.27.29.17.64.59,1,.51a1.42,1.42,0,0,0,.56.44c.42-.19.63.16.93.23a7.42,7.42,0,0,0,1.58-.08c.64,0,1.38.11,2,.11.07,0,.2-.09.27-.09s.26.13.41.12c.67,0,1.3-.43,2-.41.16,0,.3.12.47.11.62,0,1.27-.32,1.92-.05.06-.14.38-.07.36-.27.19-.05.16.18.35.13A16,16,0,0,1,45,25.47a3.48,3.48,0,0,0,.56-.07c.63-.1,1.17-.29,1.82-.44.12,0,.31,0,.4,0s.19-.18.31-.21c.52-.13,1.13-.06,1.48-.4,2-.23,3.43-1,5.33-1.36.14,0,.19-.13.26-.2.29.18.68-.08.87-.28A4.07,4.07,0,0,0,57.79,22c.72.07,1.83-.77,2.47-.63.18,0,.14-.16.2-.25,1.06.11,1.24-.73,1.94-.85a.27.27,0,0,0,.08-.29c.13,0,.18.07.34,0a1.35,1.35,0,0,0,.22-.53c.46,0,.56-.37.84-.55" transform="translate(-3.87 -4.7)" fill="#f36f21" fill-rule="evenodd"/><path d="M83.83,43.54A2.42,2.42,0,0,1,84,43c-.16-.06-.06-.43-.27-.42A8.45,8.45,0,0,0,83,38.77a6.84,6.84,0,0,0-.77-2.23c0-.14.07-.18.08-.29s-.13.05-.29,0c.24-.57-.1-1.36,0-1.87-.55-.67-.34-1.89-1.06-2.31,0-.15-.06-.32,0-.4-.56-.85-1-1.91-1.51-2.76-.84-1.28-.85-2.9-1.37-4.31-.28-.77-1.73-3.37-2.6-3.54,0-.14.06-.18.08-.29a4.91,4.91,0,0,1-1.4-2.27v-.05c-.3-.34-.81-.67-.7-1.16-.29-.07-.07-.43-.29-.53-.17-.36-.46-.56-.47-1.13v-.06c-.07-.16-.24-.22-.23-.48h.06V15a.69.69,0,0,1-.24-.59v-.06c0-.18-.31-.23-.21-.37-.19.12-.14,0-.34,0-.07-.68-.85-1.51-.9-2.38v-.06c-.31-.21-.26-.86-.48-1.19s-.57-.67-.28-.93c-.25,0-.07-.59-.3-.64V8.7a1.22,1.22,0,0,1-.31-1.21c-.19-.09-.23-.39-.4-.52a1,1,0,0,1,.13-.35c-.37-.23,0-1.08-.58-1.12V5.39c-.4.06-.56-.19-.93-.18h-.06c-.23,0-.55-.41-.85-.52-.07,0-.08.11-.15.13,0,.32-.37.16-.35-.07h-.06a.68.68,0,0,1-.57.41c-.23,0-.11.25-.31.26,0,.05-.06.05-.1.07s.1.14,0,.17c-.44,1-1.24,1.72-1.66,2.74l0,.33c-.29-.1-.24.34-.39.5h-.06c0,.32-.2.48-.19.81.15.09,0,.34-.12.41.25.27-.1.52-.18.93a9.84,9.84,0,0,1-.24,1.84l-.22,0a1.83,1.83,0,0,1-.62,1,1.72,1.72,0,0,1-.43.67c-.27.44-.55.88-.8,1.34a1.4,1.4,0,0,1-.37.67,5,5,0,0,1-1.87,1.91c-.08.2-.37.25-.58.35s-.1.09-.22.08c0,.16.24.11,0,.22-.26-.32-.55.19-1,.17-.14.31-.89.18-1.25.43-.08,0-.1.09-.22.08a2.14,2.14,0,0,1-.6.18c-.25.15-.26.32-.6.18,0,.38-.51.13-.75.31s-.43,0-.78.15l-.28,0a2.24,2.24,0,0,1-.87.32c0,.09.05.21,0,.23s-.21-.11-.35-.13c-.13.15-.43.17-.71.2a58.45,58.45,0,0,1-6.33,1.48,31.74,31.74,0,0,1-3.5.52l-.22,0c-.64,0-.89.39-1.5.23-.33.07-.44,0-.84,0-.59-.06-.84.23-1.35.1a3.92,3.92,0,0,1-.67,0c-.14.19-.39,0-.61.07h-.06c0,.07-.09.1-.09.18-.27-.16-.55-.06-.93-.18h-.11c-.6.12-.63-.06-1.18.08-.34-.34-1-.34-1.17-.82v-.06c-.05-.27-.33-.26-.4-.52v-.06c-.4-.22-.36-1-.81-1.15A3.63,3.63,0,0,0,29,19.37v-.05c-.06,0-.1-.15-.12,0-.17,0-.09-.27-.26-.25.07-.78-.53-1.24-.63-2a.41.41,0,0,0-.18-.09c0-.56-.55-.67-.42-1.14v-.06s0,0,0,.06c-.19-.15-.08-.4-.31-.25,0-.51-.45-.87-.38-1.31-.34-.8-1.05-1.19-1.63-1.85,0-.05.06,0,.1-.07s-.23,0-.33,0-.29-.4-.42-.23c-.13-.15-.4-.4-.35-.58-.3.08-.55-.23-.83-.35-.12.07-.18,0-.38.1s-.19.39-.46.45-.47.13-.71.2c0,.29-.23.46-.25.76s.08.23.1.38c-.29.14-.14.63-.36.83-.2.38-.07,1-.35,1.34,0,1.29.13,2.78-.65,3.58.06.2-.11.37.06.5a8.27,8.27,0,0,0-1.24,2.92c-.23.24-.18.7-.34,1,0,0,0,.07,0,.06s0,.25,0,.4-.12-.05-.23,0c-.06.33-.29.52-.36.83,0,.14-.3.4-.44.56s-.31.66-.57.91a2.86,2.86,0,0,0-.49.62,14.33,14.33,0,0,1-1.06,1.54c-.27.5-.61.94-.91,1.41-.49,1.08-1.11,2.06-1.67,3.08a3,3,0,0,1-.38.61c-.36.55-.53,1.24-.93,1.75,0,.22.13.35.05.45s-.15.46-.39.56c-.09.38-.34.62-.28,1-.83.59-.75,1.9-1.51,2.55a14.49,14.49,0,0,1-.57,1.88c0,.21,0,.45-.16.58a.32.32,0,0,1,0,.23c-.07.2-.18.27-.05.52-.07.07-.2.08-.27.15-.25.75-.37,1.6-.63,2.34a.79.79,0,0,1-.08.75H7.47a27.19,27.19,0,0,0,.12,2.93c.26.24.06.5,0,.74.08.22,0,.26.06.55s.12.53,0,.63c-.26.85.23,1.77.2,2.64-.12.11-.08.34,0,.57.08.39-.11.46,0,.79l.08.67c0,.15.06.32,0,.4a17.5,17.5,0,0,0,.44,1.87,12.59,12.59,0,0,0,.79,2.4c.19.11.13.52.25.7.37,1,.89,1.78,1.28,2.74a3,3,0,0,1,.61.89c.16.54.65.79.71,1.27.38.25.47.86.81,1.15.75,1.18,1.14,2.55,2.17,3.56S17.09,71.9,18,72.8a10.73,10.73,0,0,0,2.79,2c-.06.27.27,0,.2.31.28,1.13,5.25,3,6.08,3.61A5.16,5.16,0,0,0,29.51,80a14.17,14.17,0,0,0,2.26.11c.15-.1,3.54,1.48,4.19,1.49a20.31,20.31,0,0,1,2.58-.06c.29,0,2,.12,2.08.19.54.41,1.29.1,2,.1.15,0,.27.13.41.12.35,0,.66-.14,1-.12s.43.15.64.15c.38,0,.8-.17,1.23-.14a6,6,0,0,0,1.79-.16,1.11,1.11,0,0,0,.36.18c.25-.18.72.11.76-.26a2.75,2.75,0,0,0,1.9-.22c.53.31,1.08-.33,1.58,0a1.94,1.94,0,0,0,1-.56c.65-.14,1.89.26,2.33-.39a3.59,3.59,0,0,0,1.73-.15c.06,0,.09-.17.15-.19s.2.07.29,0,.24-.3.3-.32.25.13.3.13c.92.1,2-.52,3-.69.07-.06.21-.07.14-.24a15.06,15.06,0,0,0,3.77-1.57c.4-.15,1.26-.26,1.38-.79a3,3,0,0,0,1.25-.94c.13,0,.13.09.29,0,.92-1,1.55-2.25,2.82-3,.2-.62,1-.78,1.13-1.43l.23,0a3.9,3.9,0,0,1,.11-.47,1.93,1.93,0,0,0,1.12-1.09c.49.05.66-.55.67-1,.33-.5.94-.78,1.08-1.43.42-.11.48-.5.58-.86a2,2,0,0,0,1-1.64c.24-.2.6-.3.72-.59s-.13-.26-.12-.5c.59-.21.67-.83.92-1.3.14,0,.27,0,.33-.1.2-.34.5-.59.69-.93a1.37,1.37,0,0,0,.19-.7c1-.58.73-1.88,1.56-2.61-.07-.21,0-.28,0-.46s.17-.14.26-.2c-.06-.8.51-1.09.4-1.92.42-.27.29-1,.57-1.37,0-.18-.12-.18-.1-.38s.28-.08.38-.16a3.87,3.87,0,0,0,.45-2.43c.24-.37.28-.89.66-1.15-.11-.07.05-.28-.1-.38a1.18,1.18,0,0,0,.12-.46,1.9,1.9,0,0,0-.23-.54c.23-.4.05-.87.07-1.37l.28,0A2.57,2.57,0,0,0,83.66,46,3.78,3.78,0,0,0,83.83,43.54Zm-4.67-.3a4.39,4.39,0,0,1,0,1.36,20.8,20.8,0,0,1,.27,2.29c-.07.57-.73,1.08-.65,1.66,0,.05,0,.11-.1.12,0,.18.17.09.15.27-.27,0-.09.26-.25.31,0,.31-.2.42-.14.75.06.12-.17.44-.08.75A7.29,7.29,0,0,1,78,52.32c0,.31-.13.47-.14.75a6.1,6.1,0,0,0-.58,1.82l-.17,0A13.4,13.4,0,0,1,75.35,59l0,.34c-.32.07-.24.45-.37.67s-.22.4-.39.55a2.94,2.94,0,0,1-.51.91.35.35,0,0,0,0,.29c-.35.1-.34.47-.6.64A15.07,15.07,0,0,1,72,64.78c-.3.32-.54.69-.85,1v.06A10.94,10.94,0,0,1,70.34,67c-.25.58-.85.88-1.07,1.48a.11.11,0,0,1-.22,0c-.14,0,.06.25-.15.19s-.14.46-.51.45c-.06.19-.27.26-.47.34,0,.11,0,.15,0,.23s-.1,0-.17,0a2.68,2.68,0,0,1-1.07,1,9.59,9.59,0,0,0-.86.84c-.07.17-.31.2-.29.43-.24-.1-.33.08-.49.17-.22.29-.22.45-.43.73-.63-.08-.6.58-1.16.7,0,.13-.17.21-.18.36l-.34,0h-.05c-.14.29-.48.43-.78.6-.09.06-.12.17-.32.15-.33.16-.44.49-.81.38-.33.32-1.06.3-1.51.63,0,.13-.13.15-.22.08s0,.14,0,.23c-.21,0-.3-.16-.51,0a3.32,3.32,0,0,1-.81.32c-.18.08-.42.11-.54.23s-.32.16-.55.12a1.59,1.59,0,0,1-.82.26,18.4,18.4,0,0,1-2.87.62,1,1,0,0,1-.66.19c-.11,0-.09.16-.14.24-.56-.33-1,.25-1.51.12-.11.12-.37,0-.54.17-.46,0-1.22.25-1.61.25a3.34,3.34,0,0,1-1.18,0,5.37,5.37,0,0,1-1.9.17v.05c-.2,0-.46,0-.58-.1H44.9c-.14.13-.55.06-.73,0s-.36.07-.45,0-.47.13-.57,0H43a.91.91,0,0,1-.62,0H42.3a5.22,5.22,0,0,1-1.53,0h-.06c-.47-.17-1.19,0-1.67-.2H39c-.2.06-.45-.13-.5.12-.33-.29-.91-.3-1.24-.42h-.06A25.13,25.13,0,0,1,33,77.11c-.09,0-.1,0-.18,0a5.37,5.37,0,0,1-1.45-.34h-.06a9.85,9.85,0,0,1-2.37-.91h-.06a3.2,3.2,0,0,1-.78-.42c-.16.06-.18-.08-.34,0l0-.17c-.89-.5-1.77-1-2.71-1.43-.35-.57-1-.69-1.64-.94-.24-.42-.92-.62-1.07-.95v-.06c-.27-.15-.44-.43-.89-.35a1.72,1.72,0,0,0-.33-.41c-.21,0-.14.16-.32.15-.29-.28-.34-.85-.84-.86a1,1,0,0,0-.59-.72V69.6c-.22-.05-.3.1-.51,0-.09-1-1.09-.88-1.48-1.52,0-.43-.35-.41-.38-.8-.57-.31-.55-1-1-1.53-.18,0-.27.23-.43.16-.23-.39-.23-1.08-.45-1.47a.31.31,0,0,1-.4,0c0-.19.15-.19.19-.31a2.83,2.83,0,0,0-1-1.07.37.37,0,0,0,0-.28h.05v-.06c.05-.25-.2-.13-.35-.13,0-.35.07-.71-.36-.64a1.53,1.53,0,0,0-.51-1.41c0-1-.68-1.52-.88-2.21,0-.09.07,0,.17,0s-.14-.08-.24-.09c-.11-.32.16-.35.1-.63v-.11c-.31-.14.1-.88-.38-.86,0-.66-.13-1,.23-1.44v-.06c-.15-.87-.82-1.66-.68-2.47H11c0-.06,0-.1-.07-.1s-.3-.24-.08-.22c0-.1-.08-.11-.08-.22V52c0-.62-.33-.91.09-1.2,0-.17-.12-.15-.09-.33s0-.08,0-.17c-.09-.26,0-.34.05-.52v-.06A1.8,1.8,0,0,1,10.93,48c0-.2-.21-.11-.21-.32s.34-.31.33-.6c-.14-.12,0-.32,0-.46-.13-.34.17-.43.25-.76.21-.81-.4-1.61.6-2.11l0-.22c0-.29.33-.68.32-1.12.62-.25.41-.9.52-1.36V41c.76-.94.58-2.62,2-3.06,0-.35-.06-.76.24-.87V37l0-.28c.29-.07.38-.31.44-.56v-.06c-.17-.83,1.09-1,.84-2a1,1,0,0,0,.77-.65v-.06c.16-.36.45-.63.37-1.18.26-.15.62-.25.59-.75.28,0,.41-.46.41-.84h.06v-.11c.05-.19.34-.21.22-.54.41.09.19-.45.38-.67v-.06c.39-.41,1-.66.9-1.46a2.7,2.7,0,0,0,1-1.13c0-.17.05-.23.07-.35,0-.89.92-1.33.89-2.09v-.06c-.09-.16.12-.27.05-.52a1,1,0,0,0,.55-.17s0-.56,0-.23a4.45,4.45,0,0,1,.38-1.63.49.49,0,0,0,.43-.16h.05a3.68,3.68,0,0,1,.61-.63c0-.54-.15-1.21.21-1.55v-.05c0-.25-.19-.23-.22-.43.2-.11.21-.38.46-.45,0,.1.08.11.08.22.06.26.55.25.41.58a1.24,1.24,0,0,1,.35.58,1.52,1.52,0,0,1,.22.43,6,6,0,0,1,.47,1.13c.47.57.65,1.52,1.24,1.94-.11.14,0,.22,0,.39.14,0,.08.29.31.19,0,.19.07.25.1.38a7.69,7.69,0,0,1,.94,1.3,4.73,4.73,0,0,0,.85.47V26c.29.17.64.59,1,.51a1.41,1.41,0,0,0,.56.44c.43-.19.63.16.93.23a7.43,7.43,0,0,0,1.58-.07c.64,0,1.38.11,2,.11.07,0,.2-.09.27-.09s.25.13.41.12c.67,0,1.3-.43,2-.41.16,0,.3.12.47.11.62,0,1.27-.32,1.92-.05.06-.14.38-.07.36-.27.19-.05.16.18.35.13a15.93,15.93,0,0,1,3.67-.55,3.44,3.44,0,0,0,.56-.06c.63-.1,1.17-.29,1.82-.44.12,0,.31,0,.4,0s.19-.18.31-.21c.52-.13,1.13-.05,1.48-.4,2-.23,3.43-1,5.32-1.36.14,0,.19-.13.26-.2.29.18.68-.07.87-.27a4.08,4.08,0,0,0,1.75-.54c.72.07,1.83-.77,2.47-.63.18,0,.14-.16.2-.25,1.06.11,1.24-.73,1.94-.85a.28.28,0,0,0,.08-.29c.13,0,.17.07.34,0a1.34,1.34,0,0,0,.22-.53c.46,0,.56-.37.84-.55v-.06c-.05-.18,0-.26,0-.4.88-.54.71-1.9,1.58-2.45a.76.76,0,0,1,.53-.8,3.37,3.37,0,0,1,.4-1v-.11l0-.28c.18,0,.13-.17.26-.2v-.06c0-.37.54-.75.61-.13a3.86,3.86,0,0,1,.44.85,1.1,1.1,0,0,1,.34.47c0,.11.2-.11.29,0-.16.51.33.66.52,1.07a.75.75,0,0,1,.24.59c.18.35.38,1.1.7,1.61.23,0,.16.48.45.46a1.38,1.38,0,0,0,.2.71c.71,1.5,1.6,2.86,2.15,4.38a.77.77,0,0,1,.3.64,23.11,23.11,0,0,1,1.17,2.24,1.54,1.54,0,0,1,.41.57c.36.62.69,1.27,1,1.92.18,0,.32.45.29.53v.05a1.18,1.18,0,0,1,.4.52c0,.37.26.44.31.76.1.15.37.43.34.52s.06.09.13.1c.42,1,.48,2.21.84,3.29a10.28,10.28,0,0,1,.35,1.09c.5,2.1,1.58,4.14,1.21,6C79.1,42.93,79.39,43.13,79.15,43.24Zm.77-7.39c0-.15.15-.19.13-.35C80.2,35.56,80.1,35.86,79.93,35.85Z" transform="translate(-3.87 -4.7)" fill="#201600" fill-rule="evenodd"/><path d="M23.95,39.43c.19.25.42.07.55-.12a.15.15,0,0,0,.18.09.68.68,0,0,0,.52.06c.15,0,.1-.19.26-.2a2.12,2.12,0,0,0,1.29,0h.11v.06c.2-.1.31,0,.55-.12h.06v.06c.29.09.38,0,.67-.08s.14.29.32.3.19-.26.42-.28c.2.18.64,0,.77.31.19-.26.83.4,1,.11h.06c.61.2,1.57.21,1.73.76.66-.22,1.19.41,2,.5h.05c.67.62,1.87.58,2.47,1.29l.28,0a1.65,1.65,0,0,1,.4.58,1,1,0,0,1,.84.86c.41.29,1.18.83,1.67,1.22a1.46,1.46,0,0,1,.47.62v.11c.4.09.52.54.78.82v.05c.39.55,1.4.32,1.55,1.17-.28,0-.09.3,0,.4a3.3,3.3,0,0,0-.65,1.71c.05.21-.1.41.06.56h-.06A10.35,10.35,0,0,0,42,51.74v.11a2.48,2.48,0,0,1,0,1.81c.48.84-.19,2.28-.09,3.12v.05h-.06a.83.83,0,0,0,1.14.55c.12,0,.15-.06.22-.08a15.52,15.52,0,0,1,1.86,0c.36-.42,1,0,1.39-.22h.11a.64.64,0,0,0,.83-.66c-.09-.16.2-.17.25-.26.22-.38-.26-.85.16-1.1-.08-.35.08-.51,0-.85l.17,0c-.19-.32.22-.5.06-1,.33-.21.21-.78.56-1-.13-.76.42-1.65.28-2.41a1,1,0,0,0,0-1.25c.09-.33.08-.74.46-.85-.12-1.21.78-1.61,1.06-2.5.34-.12.43-.44.47-.79.16-.66.63-.87.85-1.4.08,0,.21,0,.29.08.1-.13-.19-.5,0-.62a.39.39,0,0,1,.33,0c.09-.12-.06-.14,0-.33s.31,0,.32-.21a6.91,6.91,0,0,1,1.06-1.09c.27,0,.22-.23.36-.33.34-.15.56-.4.9-.56s.41-.28.66-.19c0-.22.29-.14.3-.32.58-.2,1-.49,1.61-.7.17-.14.59-.11.75-.37h.06c.21,0,.17-.14.26-.2s.21,0,.29.08c.09-.19.3-.17.3-.32a2.19,2.19,0,0,0,.65-.25l0,.17s.05-.06.11-.07c.29-.36.94-.21,1.49-.34l.17,0c.17-.12.19,0,.4,0a.28.28,0,0,1,.15-.18c.41.18.61,0,1.07,0s.71-.13,1.28-.15v.05c.27-.15.49.17.79,0,.16.09.49,0,.73,0v.06a15.74,15.74,0,0,0,2.76.36H69v.05c.2.09.57,0,.84,0h.06c.5.51,1.42-.06,1.88.63A1,1,0,0,1,73,38.6c.59.06.76.35,1.06.84.94.6,1.6,1.56,2.52,2.19,0,.29.2.26.27.42s.12.49.25.65v.06a2,2,0,0,1-.37,2.14c-.37-.22-.84.25-1.14.42a1.45,1.45,0,0,0-.95.11c-.12.43-.53.63-.74,1h-.05A13.45,13.45,0,0,1,72.18,48l-.33,0c-.34.77-1.4.67-1.94,1.3h-.06c-.32-.06-.54.24-.82.27-.07,0-.11-.12-.18-.09s-.07.16-.2.19c-.43.12-.71.49-1.23.6s-.91-.06-1.4.16H66c-1,.27-2.31-.39-3.21.15a4.5,4.5,0,0,1-.93-.23l-.15.19a5.33,5.33,0,0,0-.7-.15v-.06c-.17-.18-.35-.12-.63,0-.12,0-.18-.12-.35-.07a6.47,6.47,0,0,0-2.09-.49h-.05c-.51,0-.87-.44-1.39-.24h-.06c-.14-.17-.41-.16-.6-.27h-.06a2.24,2.24,0,0,0-1-.4c-.13-.21-.31,0-.51-.05v-.06c-.53.13-.65.82-.59,1.26-.38.48-.27,1.18-.29,1.85a2.58,2.58,0,0,0-.62,1.43c-.12,0-.3.13-.16.13v.05h-.05c-.06.19-.18.6-.08.75v.05c-.09.06-.1.19-.07.35a.36.36,0,0,0-.27.09c.39.74-.25,1.17-.15,1.66v.11c0,.16.1.14.09.27a1.14,1.14,0,0,0-.22.53,1.1,1.1,0,0,1,.36.69v.05c0,.67-.26.88-.22,1.5v.05c0,.79-.62,1.13-.68,1.89-.27.28-.7.43-.68.93v.06h-.06a2.84,2.84,0,0,1-.89,1.12c.07.63-.48.77-.59,1.26H49.1c-.21.19-.17.44-.49.63l.05.45a6.33,6.33,0,0,1-1.49,1.76c.06.2-.07.25,0,.45-.12,0-.14.05-.22.08.14.42-.09.54-.19.76.22.14.09.75.42.74v.06a1.42,1.42,0,0,0,1,.84h.06v.06a.37.37,0,0,1,.13.16c.27-.13.35.32.52.11l.22,0V71c.71.38,1.72.29,2.29.69A.9.9,0,0,1,52,71.5H52c.32,0,.65.48,1,.17a1.28,1.28,0,0,0,.77-.15c.18.26.52-.18.71-.25s.05,0,.05-.06c.41-.08.57-.62,1-.51.17-.1-.08-.34.14-.24h.11c.08-.15,0-.44.17-.53H56c0-.07.1-.06.16-.08,0-.27.28-.32.39-.5a.15.15,0,0,0,.09-.18c.31,0,.47-.14.46-.39s.3-.27.34-.49c.3-.07.25-.41.57-.46v-.05c.06-.14.09-.31.37-.27,0-.15-.06-.32,0-.4V67c.38-.12.38-.54.9-.56.07.08.1.22.2.26,0,.26.24.33.34.53a2.22,2.22,0,0,1-.07,1.31v.05c0,.44,0,.93-.31,1.17v.11c-.06.28-.36.08-.53.29-.1.61,0,1.19-.64,1.26-.24.43-.16,1.13-1,1.08-.12.14-.18.37-.34.49s-.39.08-.66.19c-.54.21-1.11.9-1.79.72-.2.26-.58.07-.75.32-.22,0-.46-.25-.62,0-.1-.09-.3,0-.31-.25l-.28,0h-.11V74a2.77,2.77,0,0,1-1.66.31h-.11c-.24.23-.39-.08-.63,0H50c-.65-.16-1.61.31-2-.34-.17,0-.3.17-.45.05h-.06c0-.05,0,0-.06-.05-1.17-.22-2-1.14-3.11-1.45,0,.43-.27.57-.41.84h-.05c-.45,0-.29.45-.62.53-.42-.23-.63.27-.85.5h-.06a1,1,0,0,0-.59.3h-.06c-.78.4-1.48.09-2.23.26h-.05c-.15-.2-.45.07-.74,0a1,1,0,0,0-.63,0,1.06,1.06,0,0,0-.7-.2c-.31,0-.54-.12-.86-.12s-.37-.37-.58-.16h-.06c-.06-.22-.4-.09-.58-.16a1.93,1.93,0,0,1-.49-.28c-.33-.26-.81-.34-1.14-.6-.35-.51-1.12-.5-1.28-1.26-.06-.12-.27,0-.31-.19-.4-.18-.43-.82-.95-.85,0-.1,0-.29-.14-.21a15.2,15.2,0,0,0-1.11-1.23v-.11c-.09-.22-.35-.24-.3-.64-.08,0-.15-.06-.24-.09-.07-.4-.38-.5-.49-.85-.12-.09,0-.14,0-.28s-.15-.07-.24-.08a3.49,3.49,0,0,0-.31-.76c-.06-.2,0-.56-.14-.66a.67.67,0,0,0,.15-.64,1.61,1.61,0,0,1,.43-.22v.06c.32,0,.92.05,1.17-.14h.06c.28-.19.47.13.72-.14.47.15.86.69,1.22.76a11.07,11.07,0,0,0,2.32,2.44v.11c.35.16.52.53.82.75v.06a3.8,3.8,0,0,0,1.22,1.22v.05c.12.44.59.45,1,.56.17,0,.2.18.41.12.58.32,1.29.24,1.93.57l0,.22c.15,0,.13-.13.14-.24a3.61,3.61,0,0,0,.79,0c.08.1.1-.15.28,0,0-.18.17-.27.3-.37.41-.72,1.62-1.08,1.58-2,.1-.21,0-.72-.2-.77a6.39,6.39,0,0,0-1-1.47,1.83,1.83,0,0,0-.42-.69c0-.09-.06-.09-.08-.16a2.46,2.46,0,0,0-.34-.52c0-.1-.08-.11-.08-.22-.17-.41-.58-.51-.63-1.06v-.06c.15-.07-.11-.14-.24-.09,0-.13,0-.21-.14-.21-.15-.3-.36-.52-.5-.84A3.42,3.42,0,0,0,38,62v-.11a2.37,2.37,0,0,0-.47-.63,3.38,3.38,0,0,0-.73-1.39c.05,0,0-.07,0-.12.39.19.51-.29.83-.16,0-.05.08-.37,0-.39l0-.33h.06c.09-.24.5-.48.43-.67l0-.22c0-.12.19-.42.06-.52v-.11c0-.37-.09-.7-.32-.81v-.05a4,4,0,0,0,0-.9c.12-1.16.2-2.21.27-3.48.12-.13,0-.47,0-.68a2.19,2.19,0,0,0,0-.68c.13-.1-.12-.27-.26-.25a1.08,1.08,0,0,1-.81.32c0,.27-.2.31-.34.44h-.11c-.36.09-.68.22-1.1.3h-.06c-.39,0-.35.37-.56.52h-.06c-.62.22-1.08,0-1.54.35a.15.15,0,0,0-.22,0c-.41-.14-1.07-.3-1.28.15h-.11c-.46-.29-.93.31-1.4.16a.69.69,0,0,1-.57.41h-.11c-.43,0-.42-.07-.72.14h-.06a14.51,14.51,0,0,0-2.45.29h-.05c-.29,0-.81-.21-.91,0-.13,0-.19-.15-.26-.25a2,2,0,0,1-1.2-.08v-.11a2.43,2.43,0,0,1-.68,0,1.23,1.23,0,0,1-.75-.59c-.46.21-.65-.3-1.15-.15l-.17,0c-.06-.09-.21-.07-.25-.2a.43.43,0,0,1-.34,0c-.34-.53-1.35-.21-1.57-.89a8.17,8.17,0,0,1-1.21-.65c0-.09-.06-.09-.08-.16-.48-.42-1.15-.59-1.59-1.06,0-.17.1-.33-.05-.45s-.18-.33-.28-.48v-.11c-.17-.19-.29-.44-.47-.62a1,1,0,0,0,0-.45c-.1-.34-.45-.36-.49-.79v-.11c.07-.24-.09-.4,0-.62v-.06c.2,0,.32-.05.25-.25a14.81,14.81,0,0,1,1.16-1.21V44.3a.47.47,0,0,1,.33-.09c0-.33.52-.23.5-.57,0,0,0-.05,0-.06l.28,0c0-.49.54-.52.75-.82h.06a1.07,1.07,0,0,0,.46-.39h.06c.23-.24.65-.33.83-.61v-.05a2.17,2.17,0,0,0,.57-.41,3.94,3.94,0,0,1,1.28-.66c.14-.18.48-.2.57-.41h.05c.29,0,.31-.19.54-.23s.47-.17.76-.26c.1-.18.34-.24.65-.25Zm5,3.38s0-.06,0-.05c-1.09-.14-2.85-.7-4.21-.19-.18,0-.33-.14-.38.1h-.11c-.32.05-.35.33-.57.46h-.06c-.69.1-.88.59-1.44.79-.17,0-.23-.1-.33,0-.16.39-.62.56-.92.84,0,0,0-.07-.06,0h-.06c-.39.27-.49.76-.77,1.11a.85.85,0,0,0-.44.16c0,.14.12.11.09.27-.23.15-.1.59-.43.67,0,.18.13.27.11.49.3,0,.46.28.72.37h.06c.12.36.49.4.6.78.17-.1.18,0,.39,0,.08.22.22.36.3.59.86,0,1.33.54,2.06.72h.05c.38.07.55.41,1,.39h.05a3.45,3.45,0,0,0,2.31.35l.17,0c.36,0,1,.17,1.11-.19h.06a.24.24,0,0,1,.14.21,1.7,1.7,0,0,0,.64-.36v-.06c.2-.08.17.12.35.07a.34.34,0,0,1,.44-.16c0,.12.07.17.19.15s.06-.05,0-.12c.23-.24.77,0,.86-.39-.14-.07,0-.5-.32-.36h-.06c-.11-.17,0-.21-.05-.45l-.22,0v-.06c-.09-.4-.43-.49-.55-.84a5.88,5.88,0,0,1-.5-3.33c.06,0,0-.1,0-.17.25,0,.36-.32.13-.35.06-.38.17-.71.21-1.1s-.28-.34-.55-.33ZM64.26,40.2c-.28,0-.8-.12-1,.06a3.83,3.83,0,0,1-1.1.24c-.19-.11-.48,0-.61.13-.2-.15-.41.12-.55.18-.25-.09-.35.12-.55.12-.17.3-.51,0-.53.29h-.05a1.51,1.51,0,0,0-1.24.54h-.06c-.39,0-.45.22-.82.21-.11.56-.52.69-.89,1.12s-.58,1-.76,1.22c-.43.58-.15.51.33.87a4.33,4.33,0,0,0,1.82,1c.27-.07.41,0,.63,0s0,.26.14.27c0-.21.22-.07.34,0h.06c.27.09.68.33.83.35h.06c.64,0,1.14.36,1.67.26.05.08.19.06.19.2.86-.06,1.7.29,2.33.12.35,0,.82.18,1.06-.12l.28,0a1.53,1.53,0,0,0,.6-.19h.06l.33,0c.21-.28-.1-.52-.3-.64a1.23,1.23,0,0,1-.14-.72l-.28,0a4.43,4.43,0,0,1-.4-2.44c.07-.18,0-.46.16-.58-.08-.55.48-.76.25-1.27.2-.18.28-.45.49-.62l0-.17c-.61-.55-1.48-.17-2.27-.53,0,.06,0,.07,0,.12m-35,12.58c.14,0,.27,0,.26-.14-.16.06-.12-.14-.29-.08Zm15.2,7.55c-.14,0-.18-.2-.31-.25s0,.29-.13.35-.36,0-.79,0h-.05c-.49-.15-.61.43-1.14.41a1.09,1.09,0,0,0-.13.87.56.56,0,0,1,.42.18c-.18.38.23.56.37.75a1.42,1.42,0,0,0,.75,1.55,1.16,1.16,0,0,0,.33.87c0-.07.06,0,.11,0v.05c.06.17-.08.17,0,.34.15-.06.15.06.29,0a.77.77,0,0,0,.29-.43c.18-.23.23-.56.48-.74.1-.16.34-.2.47-.34-.16-.39.3-.3.14-.69a.3.3,0,0,0,.3-.32c.17,0,0-.29.19-.3s.16-.31.48-.28l0-.34a5.87,5.87,0,0,0,1.21-2.18c-1,0-2,.38-3.17.43Z" transform="translate(-3.87 -4.7)" fill="#201600" fill-rule="evenodd"/><path d="M72.36,77.49a12.48,12.48,0,0,1,4.14-.67,9.2,9.2,0,0,1,4.66,1c1.46,1,1.89,3,3.1,4.15.68.65.65,1.73,1.38,2.39v.44c.8.46,1,1.92,1.44,2.88.08.09.29,0,.38.13.13,1,.52,1.31.69,2.26.22,0,.26.07.37.12.14.73.28,1.28.38,2.07.12,1,.7,2.18.69,3.07a6.64,6.64,0,0,0,.25,2.32c-.17.16-.1.36-.12.76-.29.65-.21,1.67-.63,2.2,0,.15.11.18.06.37a1.86,1.86,0,0,0-.44,1.07c-.5.22-.41.78-.75,1.13s-1.4.5-1.69,1.19c-.58.08-.6.38-1.13.12a1.77,1.77,0,0,0-.69.06c-.12,0,0-.25-.25-.19a.39.39,0,0,0-.31.06,8.77,8.77,0,0,1-3.26-3.13,79.68,79.68,0,0,0-3.07-8.78V92c-1.65-1.78-2.36-3.81-4.37-5.35a27.23,27.23,0,0,0-2.83-1.93c-1.66-.95-3.77-1.82-2.4-3.95A8.43,8.43,0,0,1,72.36,77.49Z" transform="translate(-3.87 -4.7)" fill="#f36f21" fill-rule="evenodd"/><path d="M92,91.7a34.35,34.35,0,0,0-1.51-4.64,30.49,30.49,0,0,0-2.94-6.83A4.67,4.67,0,0,0,85.77,78c-1.17-1.58-2.73-2.39-5.3-2.79s-5-.74-7.53.13c-3.79,1.3-6.59,2.56-8,6.5-.47,1.28-.66,2.23.66,2.84a4,4,0,0,0,.39.15,20.73,20.73,0,0,0,5.4,3.81c.42,1.37,1.73,2.37,2.38,3.7a5,5,0,0,1,1.38,2.51,2.31,2.31,0,0,1,.44,1.63c.21.88.78,1.39.88,2.38a.94.94,0,0,1,.63.37c-.1.17,0,.54-.19.63.26.2.48.44.75.62,0,1.31,1.14,1.5,1.57,2.39a3.46,3.46,0,0,0,3.07,3.44c.13.69,1.25.38,1.63.81.83-.26,1.6.54,2.26.69.21,0,.3-.07.31-.25.17,0,.12.13.19.19a1.91,1.91,0,0,0,.44-.38c.92-.07,1.64-.86,2.76-.94,1.49-1.29,2.28-3.28,3.2-5.14A10.48,10.48,0,0,0,93.48,98,22.09,22.09,0,0,0,92,91.7Zm-2.26,6.71c-.29.65-.21,1.67-.63,2.2,0,.15.11.18.06.37a1.86,1.86,0,0,0-.44,1.07c-.5.22-.41.78-.75,1.13s-1.4.5-1.69,1.19c-.58.08-.6.38-1.13.12a1.77,1.77,0,0,0-.69.06c-.12,0,0-.25-.25-.19a.39.39,0,0,0-.31.06,8.77,8.77,0,0,1-3.26-3.13,79.68,79.68,0,0,0-3.07-8.78V92c-1-1.08-1.44-2.74-2.57-3.7,0-.23.09-.24,0-.44a2.88,2.88,0,0,1-.56-.69c-.2.09-.21,0-.44,0-.35-.73-1-1.05-1.57-1.5-1.21-1-2.74-1.39-3.94-2.28a1.49,1.49,0,0,1-.28-.28c1.32-3.1,4.54-4.59,8-4.93a12.25,12.25,0,0,1,3.92.23,8.85,8.85,0,0,1,2,.81c.61.93,1.89,2,2.18,2.75.68.65.65,1.73,1.38,2.39v.44c.8.46,1,1.92,1.44,2.88.08.09.29,0,.38.13.13,1,.52,1.31.69,2.26.22,0,.26.07.37.12.14.73.28,1.28.38,2.07.12,1,.7,2.18.69,3.07a6.64,6.64,0,0,0,.25,2.32C89.68,97.81,89.75,98,89.72,98.41Z" transform="translate(-3.87 -4.7)" fill="#201600" fill-rule="evenodd"/><path d="M11.68,81.52a12.48,12.48,0,0,1,4.14-.67,9.2,9.2,0,0,1,4.66,1c1.46,1,1.89,3,3.1,4.15.68.65.65,1.73,1.38,2.39v.44c.8.46,1,1.92,1.44,2.88.08.09.29,0,.38.13.13,1,.52,1.31.69,2.26.22,0,.26.07.37.12.14.73.28,1.28.38,2.07.12,1,.7,2.18.69,3.07a6.64,6.64,0,0,0,.25,2.32c-.17.16-.1.36-.12.76-.29.65-.21,1.67-.63,2.2,0,.15.11.18.06.37a1.86,1.86,0,0,0-.44,1.07c-.5.22-.41.78-.75,1.13s-1.4.5-1.69,1.19c-.58.08-.6.38-1.13.12a1.77,1.77,0,0,0-.69.06c-.12,0,0-.25-.25-.19a.39.39,0,0,0-.31.06,8.77,8.77,0,0,1-3.26-3.13,79.68,79.68,0,0,0-3.07-8.78V96c-1.65-1.78-2.36-3.81-4.37-5.35a27.21,27.21,0,0,0-2.84-1.93c-1.66-.95-3.77-1.82-2.4-3.95A8.43,8.43,0,0,1,11.68,81.52Z" transform="translate(-3.87 -4.7)" fill="#f36f21" fill-rule="evenodd"/><path d="M31.29,95.73a34.35,34.35,0,0,0-1.51-4.64,30.49,30.49,0,0,0-2.94-6.83A4.67,4.67,0,0,0,25.09,82c-1.17-1.58-2.73-2.39-5.3-2.79s-5-.74-7.53.13c-3.79,1.29-6.59,2.56-8,6.5-.47,1.28-.66,2.23.66,2.84a4,4,0,0,0,.39.15,20.73,20.73,0,0,0,5.4,3.81C11.08,94,12.4,95,13,96.36a5,5,0,0,1,1.38,2.51,2.31,2.31,0,0,1,.44,1.63c.21.88.78,1.39.88,2.38a.94.94,0,0,1,.63.37c-.1.17,0,.54-.19.63.26.2.48.44.75.62,0,1.31,1.14,1.5,1.57,2.39a3.46,3.46,0,0,0,3.07,3.44c.13.69,1.25.38,1.63.81.83-.26,1.6.54,2.26.69.21,0,.3-.07.31-.25.17,0,.12.13.19.19a1.91,1.91,0,0,0,.44-.38c.92-.07,1.64-.86,2.76-.94,1.49-1.29,2.28-3.28,3.2-5.14a10.48,10.48,0,0,0,.44-3.26A22.09,22.09,0,0,0,31.29,95.73ZM29,102.44c-.29.65-.21,1.67-.63,2.2,0,.15.11.18.06.37a1.86,1.86,0,0,0-.44,1.07c-.5.22-.41.78-.75,1.13s-1.4.5-1.69,1.19c-.58.08-.6.38-1.13.12a1.77,1.77,0,0,0-.69.06c-.12,0,0-.25-.25-.19a.39.39,0,0,0-.31.06,8.77,8.77,0,0,1-3.26-3.13,79.68,79.68,0,0,0-3.07-8.78V96c-1-1.08-1.44-2.74-2.57-3.7,0-.23.09-.24,0-.44a2.87,2.87,0,0,1-.56-.69c-.2.09-.21,0-.44,0-.35-.73-1-1.05-1.57-1.5-1.21-1-2.74-1.39-3.94-2.28a1.49,1.49,0,0,1-.28-.28c1.32-3.1,4.54-4.59,8-4.93a12.25,12.25,0,0,1,3.92.23,8.84,8.84,0,0,1,2,.81c.61.93,1.89,2,2.18,2.75.68.65.65,1.73,1.38,2.39v.44c.8.46,1,1.92,1.44,2.88.08.09.29,0,.38.13.13,1,.52,1.31.69,2.26.22,0,.26.07.37.12.14.73.28,1.28.38,2.07.12,1,.7,2.18.69,3.07a6.64,6.64,0,0,0,.25,2.32C29,101.84,29.06,102,29,102.44Z" transform="translate(-3.87 -4.7)" fill="#201600" fill-rule="evenodd"/></svg>